<svg xmlns="http://www.w3.org/2000/svg" width="18" height="18" viewBox="0 0 18 18" fill="none">
  <path d="M2.79382 7.42394C2.97723 7.77417 3.43573 8.47462 3.43573 8.47462L8.68562 0.666626L3.57328 3.88047C3.27526 4.06588 3.02308 4.3131 2.83968 4.60153C2.35824 5.48739 2.35824 6.51747 2.79382 7.42394Z" fill="#32383E"/>
  <path d="M0.732106 9.97896C0.846732 11.4829 1.69497 12.8838 3.02463 13.7902L8.68717 17.3337C8.68717 17.3337 5.13376 12.7396 2.15347 8.16602C1.85544 7.69218 1.64912 7.15654 1.55742 6.6003C1.51156 6.35308 1.51156 6.10586 1.55742 5.85864C1.48864 5.98225 1.32816 6.25007 1.32816 6.25007C1.03013 6.80631 0.823807 7.40376 0.709181 8.02181C0.640405 8.68106 0.640405 9.34031 0.732106 9.97896Z" fill="#32383E"/>
  <path d="M15.1769 10.5972C14.9935 10.247 14.535 9.54651 14.535 9.54651L9.28516 17.3339L14.4204 14.1407C14.7184 13.9552 14.9706 13.708 15.154 13.4196C15.6125 12.5337 15.6355 11.5037 15.1769 10.5972Z" fill="#32383E"/>
  <path d="M17.2598 8.02138C17.1451 6.51747 16.2969 5.11656 14.9672 4.2101L9.30469 0.666626C9.30469 0.666626 12.8581 5.26077 15.8384 9.83432C16.1364 10.3082 16.3427 10.8438 16.4344 11.4C16.4803 11.6473 16.4803 11.8945 16.4344 12.1417C16.5032 12.0181 16.6637 11.7503 16.6637 11.7503C16.9617 11.194 17.1681 10.5966 17.2827 9.99913C17.3285 9.31928 17.3285 8.68063 17.2598 8.02138Z" fill="#32383E"/>
  <path d="M2.84123 4.60153C3.02463 4.3131 3.25389 4.06588 3.57484 3.88047L8.68717 0.666626L3.43729 8.45402C3.43729 8.45402 2.97878 7.75357 2.79538 7.40334C2.3598 6.51747 2.3598 5.48739 2.84123 4.60153ZM0.732106 9.97853C0.846732 11.4824 1.69497 12.8834 3.02463 13.7898L8.68717 17.3333C8.68717 17.3333 5.13376 12.7391 2.15347 8.1656C1.85544 7.69176 1.64912 7.15612 1.55742 6.59988C1.51156 6.35266 1.51156 6.10544 1.55742 5.85822C1.48864 5.98183 1.32816 6.24965 1.32816 6.24965C1.03013 6.80589 0.823807 7.40334 0.709181 8.02139C0.640405 8.68064 0.640405 9.33989 0.732106 9.97853ZM15.175 10.5966C14.9916 10.2464 14.5331 9.5459 14.5331 9.5459L9.28323 17.3333L14.4185 14.1401C14.7165 13.9546 14.9687 13.7074 15.1521 13.419C15.6106 12.5331 15.6335 11.5031 15.175 10.5966ZM17.2383 8.04199C17.1237 6.53807 16.2754 5.13717 14.9458 4.2307L9.30616 0.666626C9.30616 0.666626 12.8596 5.26078 15.8399 9.83432C16.1379 10.3082 16.3442 10.8438 16.4359 11.4C16.4818 11.6473 16.4818 11.8945 16.4359 12.1417C16.5047 12.0181 16.6652 11.7503 16.6652 11.7503C16.9632 11.194 17.1695 10.5966 17.2841 9.99914C17.33 9.31928 17.33 8.68064 17.2383 8.04199Z" fill="#32383E"/>
</svg>