<svg width="18" height="18" viewBox="0 0 18 18" fill="none" xmlns="http://www.w3.org/2000/svg">
<g clip-path="url(#clip0_1153_1577)">
<path d="M15 0H3C1.34315 0 0 1.34315 0 3V15C0 16.6569 1.34315 18 3 18H15C16.6569 18 18 16.6569 18 15V3C18 1.34315 16.6569 0 15 0Z" fill="#636B74"/>
<path d="M5.08043 7.86527C5.19487 8.11743 5.48098 8.62176 5.48098 8.62176L8.7569 3L5.56681 5.31397C5.38084 5.44747 5.22348 5.62546 5.10904 5.83313C4.80862 6.47095 4.80862 7.21261 5.08043 7.86527Z" fill="white"/>
<path d="M3.79294 9.70457C3.86447 10.7874 4.39377 11.796 5.22348 12.4487L8.75691 15C8.75691 15 6.53957 11.6922 4.67988 8.39926C4.49391 8.0581 4.36516 7.67244 4.30794 7.27194C4.27933 7.09394 4.27933 6.91595 4.30794 6.73795C4.26502 6.82695 4.16488 7.01978 4.16488 7.01978C3.97891 7.42027 3.85016 7.85043 3.77864 8.29543C3.73572 8.77009 3.73572 9.24475 3.79294 9.70457Z" fill="white"/>
<path d="M12.8053 10.1496C12.6909 9.8974 12.4048 9.39308 12.4048 9.39308L9.12884 15L12.3332 12.7009C12.5192 12.5674 12.6766 12.3894 12.791 12.1817C13.0771 11.5439 13.0914 10.8022 12.8053 10.1496Z" fill="white"/>
<path d="M14.1071 8.29543C14.0356 7.21261 13.5063 6.20396 12.6766 5.5513L9.14315 3C9.14315 3 11.3605 6.30779 13.2202 9.60074C13.4061 9.9419 13.5349 10.3276 13.5921 10.7281C13.6207 10.9061 13.6207 11.0841 13.5921 11.2621C13.635 11.1731 13.7352 10.9802 13.7352 10.9802C13.9211 10.5797 14.0499 10.1496 14.1214 9.71941C14.15 9.22991 14.15 8.77009 14.1071 8.29543Z" fill="white"/>
<path d="M5.10904 5.83313C5.22348 5.62546 5.36653 5.44747 5.56681 5.31397L8.7569 3L5.4811 8.60692C5.4811 8.60692 5.19499 8.1026 5.08055 7.85043C4.80875 7.21261 4.80862 6.47095 5.10904 5.83313ZM3.79294 9.70457C3.86447 10.7874 4.39377 11.796 5.22348 12.4487L8.75691 15C8.75691 15 6.53957 11.6922 4.67988 8.39926C4.49391 8.0581 4.36516 7.67244 4.30794 7.27194C4.27933 7.09394 4.27933 6.91595 4.30794 6.73795C4.26502 6.82695 4.16488 7.01978 4.16488 7.01978C3.97891 7.42027 3.85016 7.85043 3.77864 8.29543C3.73572 8.77009 3.73572 9.24475 3.79294 9.70457ZM12.8053 10.1496C12.6909 9.8974 12.4048 9.39308 12.4048 9.39308L9.12884 15L12.3332 12.7009C12.5192 12.5674 12.6766 12.3894 12.791 12.1817C13.0771 11.5439 13.0914 10.8022 12.8053 10.1496ZM14.0929 8.31026C14.0214 7.22744 13.4921 6.21879 12.6624 5.56613L9.14315 3C9.14315 3 11.3605 6.30779 13.2202 9.60074C13.4061 9.9419 13.5349 10.3276 13.5921 10.7281C13.6207 10.9061 13.6207 11.0841 13.5921 11.2621C13.635 11.1731 13.7352 10.9802 13.7352 10.9802C13.9211 10.5797 14.0499 10.1496 14.1214 9.71941C14.15 9.22991 14.1502 8.77009 14.0929 8.31026Z" fill="white"/>
</g>
<defs>
<clipPath id="clip0_1153_1577">
<rect width="18" height="18" fill="white"/>
</clipPath>
</defs>
</svg>
