<svg width="18" height="18" viewBox="0 0 18 18" fill="none" xmlns="http://www.w3.org/2000/svg">
<g clip-path="url(#clip0_985_3120)">
<path d="M15 0H3C1.34315 0 0 1.34315 0 3V15C0 16.6569 1.34315 18 3 18H15C16.6569 18 18 16.6569 18 15V3C18 1.34315 16.6569 0 15 0Z" fill="#636B74"/>
<path d="M5.68047 3.75H12.9364V14.25H11.8713V9.44032H11.8609C11.7431 8.11104 10.6453 7.06935 9.30843 7.06935C7.97154 7.06935 6.87372 8.11104 6.75601 9.44032H6.74556V14.25H5.68047V3.75Z" fill="white"/>
<path d="M3.75 5.24032L4.18269 6.73064H4.54882V12.7597C4.36499 12.7597 4.21598 12.9113 4.21598 13.0984V13.5048H4.14941C3.96559 13.5048 3.81657 13.6565 3.81657 13.8435V14.25H7.54438V13.8435C7.54438 13.6565 7.39536 13.5048 7.21154 13.5048H7.14497V13.0984C7.14497 12.9113 6.99595 12.7597 6.81213 12.7597H6.41272V5.24032H3.75Z" fill="white"/>
<path d="M11.9379 12.7597C11.754 12.7597 11.605 12.9113 11.605 13.0984V13.5048H11.5385C11.3546 13.5048 11.2056 13.6565 11.2056 13.8435V14.25H14.9334V13.8435C14.9334 13.6565 14.7844 13.5048 14.6006 13.5048H14.534V13.0984C14.534 12.9113 14.385 12.7597 14.2012 12.7597V6.73064H14.5673L15 5.24032H12.3373V12.7597H11.9379Z" fill="white"/>
</g>
<defs>
<clipPath id="clip0_985_3120">
<rect width="18" height="18" fill="white"/>
</clipPath>
</defs>
</svg>
