<svg xmlns="http://www.w3.org/2000/svg" width="20" height="20" viewBox="0 0 20 20" fill="none">
  <path fill-rule="evenodd" clip-rule="evenodd" d="M13.4529 7.23815C14.2044 6.60819 15.0428 6.3685 15.8469 6.4291C16.7046 6.49373 17.4982 6.89769 18.0911 7.48444C18.6837 8.07122 19.091 8.85608 19.1562 9.70311C19.2219 10.5579 18.9371 11.4531 18.1862 12.2388C18.1175 12.3112 18.0474 12.3825 17.9756 12.453C14.5695 15.8244 10.045 15.8333 9.99872 15.8333H9.99849C9.97536 15.8333 5.43651 15.8331 2.02157 12.4527L2.02084 12.4518C1.95033 12.3817 1.88091 12.311 1.81252 12.24L1.81197 12.2393C1.06067 11.4543 0.775565 10.5593 0.841134 9.70452C0.906105 8.85762 1.31306 8.07268 1.90565 7.48569C2.49819 6.89874 3.29181 6.49445 4.14965 6.42955C4.95365 6.36871 5.79221 6.6081 6.54406 7.23776C6.62491 6.26659 7.0461 5.51075 7.65751 4.99112C8.30959 4.4369 9.15937 4.16663 9.99851 4.16663C10.8377 4.16663 11.6874 4.4369 12.3395 4.99112C12.9509 5.51081 13.3722 6.2668 13.4529 7.23815ZM10.1544 15.4915L10.1543 15.4872H10.1546L10.1544 15.4915ZM9.8426 15.4915L9.84248 15.4872H9.84275L9.8426 15.4915ZM12.5575 10.8102C12.4643 10.8102 12.432 10.9434 12.4914 11.014C12.5966 11.139 12.66 11.2998 12.66 11.4752C12.66 11.8733 12.334 12.196 11.9319 12.196C11.5297 12.196 11.2037 11.8733 11.2037 11.4752C11.2037 11.4539 11.1756 11.4433 11.1629 11.4606C11.0481 11.6167 10.9705 11.792 10.9387 11.9761C10.9207 12.0797 10.8356 12.1657 10.7287 12.1657H10.6696C10.53 12.1657 10.4149 12.0536 10.4355 11.9179C10.5767 10.9878 11.5027 10.3132 12.5575 10.3132C13.6123 10.3132 14.5382 10.9878 14.6795 11.9179C14.6999 12.0536 14.5849 12.1657 14.4454 12.1657C14.3057 12.1657 14.1952 12.053 14.1648 11.9191C14.0268 11.3094 13.3869 10.8102 12.5575 10.8102ZM6.09114 11.4752C6.09114 11.4471 6.05436 11.432 6.03705 11.4544C5.91428 11.613 5.83063 11.7926 5.79521 11.9819C5.77431 12.0936 5.68243 12.1866 5.5668 12.1866H5.52346C5.38389 12.1866 5.26875 12.0746 5.28933 11.9389C5.43047 11.0083 6.35657 10.3342 7.4113 10.3342C8.46602 10.3342 9.39212 11.0083 9.53326 11.9389C9.55386 12.0746 9.4387 12.1866 9.29913 12.1866C9.15958 12.1866 9.04905 12.0741 9.01874 11.9401C8.88075 11.3301 8.2408 10.8312 7.4113 10.8312C7.3359 10.8312 7.30831 10.936 7.35878 10.991C7.47605 11.119 7.54751 11.2888 7.54751 11.4752C7.54751 11.8733 7.2215 12.196 6.81933 12.196C6.41716 12.196 6.09114 11.8733 6.09114 11.4752ZM10.8086 13.2136C10.9072 13.1165 11.0597 13.0693 11.1822 13.135C11.3046 13.2009 11.3511 13.3536 11.2628 13.46C10.9754 13.806 10.5099 14.0255 9.99656 14.0255C9.48349 14.0255 9.01701 13.8084 8.72916 13.4596C8.64121 13.3531 8.68825 13.2004 8.81097 13.135C8.93369 13.0697 9.0859 13.1175 9.1844 13.2146C9.37414 13.402 9.66208 13.5286 9.99656 13.5286C10.3302 13.5286 10.6184 13.4006 10.8086 13.2136Z" fill="#32383E"/>
</svg>