<svg width="18" height="18" viewBox="0 0 18 18" fill="none" xmlns="http://www.w3.org/2000/svg">
<g clip-path="url(#clip0_985_3114)">
<path d="M15 0H3C1.34315 0 0 1.34315 0 3V15C0 16.6569 1.34315 18 3 18H15C16.6569 18 18 16.6569 18 15V3C18 1.34315 16.6569 0 15 0Z" fill="#636B74"/>
<path fill-rule="evenodd" clip-rule="evenodd" d="M11.261 7.22455C11.7528 6.81957 12.3016 6.66549 12.8279 6.70445C13.3893 6.746 13.9088 7.00568 14.2968 7.38288C14.6848 7.7601 14.9513 8.26465 14.994 8.80917C15.037 9.35865 14.8506 9.93417 14.3591 10.4392C14.3141 10.4858 14.2682 10.5317 14.2213 10.577C11.9918 12.7443 9.03031 12.75 9.00001 12.75H8.99987C8.98472 12.75 6.01384 12.7499 3.77861 10.5768L3.77813 10.5762C3.73198 10.5311 3.68654 10.4857 3.64178 10.44L3.64142 10.4396C3.14965 9.93493 2.96304 9.35956 3.00596 8.81007C3.04848 8.26564 3.31485 7.76103 3.70273 7.38368C4.09058 7.00636 4.61004 6.74646 5.17153 6.70474C5.69778 6.66562 6.24666 6.81952 6.73878 7.2243C6.7917 6.59998 7.06739 6.11408 7.46759 5.78003C7.8944 5.42375 8.45062 5.25 8.99988 5.25C9.54914 5.25 10.1054 5.42375 10.5321 5.78003C10.9324 6.11412 11.2081 6.60011 11.261 7.22455ZM9.10194 12.5303L9.10184 12.5275H9.10202L9.10194 12.5303ZM8.89783 12.5303L8.89775 12.5275H8.89793L8.89783 12.5303ZM10.6749 9.52085C10.6138 9.52085 10.5927 9.6065 10.6316 9.65186C10.7005 9.73221 10.7419 9.83559 10.7419 9.94838C10.7419 10.2043 10.5286 10.4118 10.2654 10.4118C10.0021 10.4118 9.7887 10.2043 9.7887 9.94838C9.7887 9.93469 9.77033 9.92788 9.76202 9.93898C9.68685 10.0394 9.6361 10.152 9.61524 10.2704C9.60351 10.337 9.5478 10.3922 9.4778 10.3922H9.43915C9.34779 10.3922 9.27243 10.3202 9.28591 10.2329C9.37833 9.63504 9.98444 9.2014 10.6749 9.2014C11.3652 9.2014 11.9713 9.63504 12.0638 10.2329C12.0772 10.3202 12.0018 10.3922 11.9105 10.3922C11.8191 10.3922 11.7468 10.3198 11.7269 10.2337C11.6366 9.84181 11.2177 9.52085 10.6749 9.52085ZM6.44233 9.94838C6.44233 9.93032 6.41825 9.92063 6.40692 9.935C6.32656 10.0369 6.27181 10.1524 6.24863 10.2741C6.23495 10.3459 6.17481 10.4057 6.09912 10.4057H6.07075C5.9794 10.4057 5.90403 10.3337 5.9175 10.2464C6.00989 9.64821 6.61606 9.21489 7.30643 9.21489C7.99679 9.21489 8.60297 9.64821 8.69535 10.2464C8.70883 10.3337 8.63346 10.4057 8.5421 10.4057C8.45076 10.4057 8.37841 10.3333 8.35857 10.2472C8.26826 9.85507 7.84937 9.53434 7.30643 9.53434C7.25708 9.53434 7.23902 9.60171 7.27205 9.6371C7.34881 9.71936 7.39559 9.82856 7.39559 9.94838C7.39559 10.2043 7.1822 10.4118 6.91896 10.4118C6.65572 10.4118 6.44233 10.2043 6.44233 9.94838ZM9.53011 11.0659C9.59468 11.0035 9.69446 10.9732 9.77463 11.0154C9.8548 11.0578 9.88521 11.1559 9.82744 11.2243C9.63927 11.4468 9.33461 11.5878 8.9986 11.5878C8.66277 11.5878 8.35744 11.4483 8.16903 11.2241C8.11146 11.1556 8.14225 11.0574 8.22258 11.0154C8.3029 10.9734 8.40253 11.0042 8.46701 11.0666C8.5912 11.187 8.77967 11.2684 8.9986 11.2684C9.21697 11.2684 9.40564 11.1861 9.53011 11.0659Z" fill="white"/>
</g>
<defs>
<clipPath id="clip0_985_3114">
<rect width="18" height="18" fill="white"/>
</clipPath>
</defs>
</svg>
