<svg width="104" height="15" viewBox="0 0 104 15" fill="none" xmlns="http://www.w3.org/2000/svg">
<path d="M1.68363 7.32001C0.732026 7.32001 2.57877e-05 8.05201 2.58709e-05 9.00361L1.31134e-06 15L7.46642 15L7.46642 9.00361C7.46642 7.7956 7.94201 7.32001 9.15002 7.32001L15 7.32L15 -1.31134e-06L9.15002 2.89918e-06C8.19842 2.98238e-06 7.46642 0.732002 7.46642 1.6836L7.46642 5.63641C7.46642 6.84442 6.99083 7.32001 5.78282 7.32001L1.68363 7.32001Z" fill="#0B6EF9"/>
<path d="M32.2374 15C31.229 15 30.4517 14.8179 29.9055 14.4538C29.3732 14.0896 28.9741 13.6835 28.708 13.2353H28.3718V14.7059H26.25V0H28.4139V5.7563H28.75C28.9181 5.47619 29.1422 5.21008 29.4223 4.95798C29.7024 4.69188 30.0735 4.47479 30.5357 4.30672C30.9979 4.13865 31.5651 4.05462 32.2374 4.05462C33.1057 4.05462 33.9041 4.26471 34.6324 4.68487C35.3606 5.10504 35.9419 5.71428 36.376 6.5126C36.8102 7.31092 37.0273 8.2633 37.0273 9.36975V9.68487C37.0273 10.8053 36.8032 11.7647 36.355 12.563C35.9209 13.3473 35.3396 13.9496 34.6113 14.3697C33.8971 14.7899 33.1057 15 32.2374 15ZM31.6071 13.1092C32.5455 13.1092 33.3158 12.8081 33.9181 12.2059C34.5343 11.6036 34.8424 10.7423 34.8424 9.62185V9.43277C34.8424 8.32633 34.5413 7.47199 33.9391 6.86975C33.3368 6.26751 32.5595 5.96639 31.6071 5.96639C30.6828 5.96639 29.9125 6.26751 29.2962 6.86975C28.694 7.47199 28.3929 8.32633 28.3929 9.43277V9.62185C28.3929 10.7423 28.694 11.6036 29.2962 12.2059C29.9125 12.8081 30.6828 13.1092 31.6071 13.1092Z" fill="#0B6EF9"/>
<path d="M42.8388 14.895C42.0544 14.895 41.3542 14.7199 40.7379 14.3697C40.1217 14.0196 39.6385 13.5224 39.2883 12.8781C38.9382 12.2339 38.7631 11.4636 38.7631 10.5672V4.34874H40.927V10.4202C40.927 11.3165 41.1511 11.9818 41.5993 12.416C42.0474 12.8361 42.6707 13.0462 43.469 13.0462C44.3514 13.0462 45.0586 12.7521 45.5909 12.1639C46.1371 11.5616 46.4102 10.7003 46.4102 9.57983V4.34874H48.574V14.7059H46.4522V13.1513H46.1161C45.92 13.5714 45.5698 13.9706 45.0656 14.3487C44.5614 14.7129 43.8191 14.895 42.8388 14.895Z" fill="#0B6EF9"/>
<path d="M50.9324 14.7059V4.34874H53.0963V14.7059H50.9324ZM52.0248 2.94118C51.6047 2.94118 51.2475 2.80812 50.9534 2.54202C50.6733 2.2619 50.5332 1.90476 50.5332 1.47059C50.5332 1.03641 50.6733 0.686275 50.9534 0.420169C51.2475 0.140056 51.6047 0 52.0248 0C52.459 0 52.8162 0.140056 53.0963 0.420169C53.3764 0.686275 53.5164 1.03641 53.5164 1.47059C53.5164 1.90476 53.3764 2.2619 53.0963 2.54202C52.8162 2.80812 52.459 2.94118 52.0248 2.94118Z" fill="#0B6EF9"/>
<path d="M55.4673 14.7059V0H57.6311V14.7059H55.4673Z" fill="#0B6EF9"/>
<path d="M64.2878 15C63.4335 15 62.6422 14.7899 61.9139 14.3697C61.1856 13.9496 60.5974 13.3473 60.1492 12.563C59.715 11.7647 59.4979 10.8053 59.4979 9.68487V9.36975C59.4979 8.2633 59.715 7.31092 60.1492 6.5126C60.5834 5.71428 61.1646 5.10504 61.8929 4.68487C62.6212 4.26471 63.4195 4.05462 64.2878 4.05462C64.9601 4.05462 65.5203 4.13865 65.9685 4.30672C66.4307 4.47479 66.8088 4.69188 67.103 4.95798C67.3971 5.21008 67.6212 5.47619 67.7752 5.7563H68.1114V0H70.2752V14.7059H68.1534V13.2353H67.8173C67.5511 13.6835 67.145 14.0896 66.5988 14.4538C66.0666 14.8179 65.2962 15 64.2878 15ZM64.8971 13.1092C65.8355 13.1092 66.6058 12.8081 67.208 12.2059C67.8243 11.6036 68.1324 10.7423 68.1324 9.62185V9.43277C68.1324 8.32633 67.8313 7.47199 67.229 6.86975C66.6268 6.26751 65.8495 5.96639 64.8971 5.96639C63.9727 5.96639 63.2024 6.26751 62.5862 6.86975C61.9839 7.47199 61.6828 8.32633 61.6828 9.43277V9.62185C61.6828 10.7423 61.9839 11.6036 62.5862 12.2059C63.2024 12.8081 63.9727 13.1092 64.8971 13.1092Z" fill="#0B6EF9"/>
<path d="M77.3682 15C76.3178 15 75.4004 14.7829 74.6161 14.3487C73.8318 13.9006 73.2155 13.2773 72.7674 12.479C72.3332 11.6667 72.1161 10.7283 72.1161 9.66386V9.41176C72.1161 8.33333 72.3332 7.39496 72.7674 6.59664C73.2015 5.78431 73.8038 5.16106 74.5741 4.72689C75.3584 4.27871 76.2617 4.05462 77.2842 4.05462C78.2786 4.05462 79.1469 4.27871 79.8892 4.72689C80.6455 5.16106 81.2337 5.77031 81.6539 6.55462C82.0741 7.33893 82.2842 8.2563 82.2842 9.30672V10.126H74.322C74.35 11.0364 74.6511 11.7647 75.2253 12.3109C75.8136 12.8431 76.5419 13.1092 77.4102 13.1092C78.2225 13.1092 78.8318 12.9272 79.2379 12.563C79.6581 12.1989 79.9802 11.7787 80.2043 11.3025L81.99 12.2269C81.794 12.619 81.5068 13.0322 81.1287 13.4664C80.7645 13.9006 80.2814 14.2647 79.6791 14.5588C79.0769 14.8529 78.3066 15 77.3682 15ZM74.343 8.46638H80.0783C80.0223 7.68207 79.7421 7.07283 79.2379 6.63865C78.7337 6.19048 78.0755 5.96639 77.2632 5.96639C76.4508 5.96639 75.7856 6.19048 75.2673 6.63865C74.7631 7.07283 74.455 7.68207 74.343 8.46638Z" fill="#0B6EF9"/>
<path d="M84.0485 14.7059V4.34874H86.1704V5.56723H86.5065C86.6746 5.13305 86.9407 4.81793 87.3048 4.62185C87.683 4.41176 88.1452 4.30672 88.6914 4.30672H89.9309V6.2605H88.6074C87.9071 6.2605 87.3328 6.45658 86.8847 6.84874C86.4365 7.22689 86.2124 7.81512 86.2124 8.61344V14.7059H84.0485Z" fill="#0B6EF9"/>
<path d="M91.1169 15C90.6267 15 90.2135 14.8389 89.8774 14.5168C89.5552 14.1947 89.3942 13.7815 89.3942 13.2773C89.3942 12.7731 89.5552 12.3669 89.8774 12.0588C90.2135 11.7367 90.6267 11.5756 91.1169 11.5756C91.6071 11.5756 92.0132 11.7367 92.3354 12.0588C92.6715 12.381 92.8396 12.7871 92.8396 13.2773C92.8396 13.7815 92.6715 14.1947 92.3354 14.5168C92.0132 14.8389 91.6071 15 91.1169 15Z" fill="#0B6EF9"/>
<path d="M95.4188 14.7059V6.17647H92.5197V4.34874H95.4188V2.07983C95.4188 1.44958 95.6079 0.945378 95.9861 0.567227C96.3642 0.189076 96.8684 0 97.4987 0H100.167V1.82773H98.1919C97.7858 1.82773 97.5827 2.03782 97.5827 2.45798V4.34874H100.566V6.17647H97.5827V14.7059H95.4188Z" fill="#0B6EF9"/>
<path d="M101.387 14.7059V4.34874H103.551V14.7059H101.387ZM102.479 2.94118C102.059 2.94118 101.702 2.80812 101.408 2.54202C101.128 2.2619 100.988 1.90476 100.988 1.47059C100.988 1.03641 101.128 0.686275 101.408 0.420169C101.702 0.140056 102.059 0 102.479 0C102.914 0 103.271 0.140056 103.551 0.420169C103.831 0.686275 103.971 1.03641 103.971 1.47059C103.971 1.90476 103.831 2.2619 103.551 2.54202C103.271 2.80812 102.914 2.94118 102.479 2.94118Z" fill="#0B6EF9"/>
</svg>
